{"title":"Battle In Seattle.2007.DVDRiP.x264.AC3.NORDIC.mkv.Zen_Bud","uid":5821108,"size":1745207871,"categoryP":"video","categoryS":"movies","magnet":"?xt=urn:btih:0afd681ef57e9421ee67c236c91af6ff97b67d9a&amp;dn=Battle+In+Seattle.2007.DVDRiP.x264.AC3.NORDIC.mkv.Zen_Bud&amp;tr=udp%3A%2F%2Ftracker.openbittorrent.com%3A80&amp;tr=udp%3A%2F%2Fopen.demonii.com%3A1337&amp;tr=udp%3A%2F%2Ftracker.coppersurfer.tk%3A6969&amp;tr=udp%3A%2F%2Fexodus.desync.com%3A6969","seeders":0,"leechers":0,"uploader":"Zen_Bud","files":-1,"time":1284047118,"description":"***** Battle In Seattle.2007.DVDRiP.x264.AC3.NORDIC.mkv.Zen_Bud *****\n\nFormat                           : Matroska\nFile size                        : 1.63 GiB\nDuration                         : 1h 35mn\nOverall bit rate                 : 2 446 Kbps\nWriting application              : HandBrake svn3506\nWriting library                  : libmkv 0.6.4.1\n\nVideo\n\nFormat                           : AVC\nDuration                         : 1h 35mn\nBit rate                         : 1 949 Kbps\nWidth                            : 720 pixels\nHeight                           : 552 pixels\nDisplay aspect ratio             : 1.853\nStream size                      : 1.30 GiB (80%)\nWriting library                  : x264 core 104\n\n\nAudio\n\nFormat                           : AC-3\nDuration                         : 1h 35mn\nBit rate                         : 448 Kbps\nChannel(s)                       : 6 channels\nChannel positions                : Front: L C R, Side: L R, LFE\nSampling rate                    : 48.0 KHz\nBit depth                        : 16 bits\nStream size                      : 305 MiB (18%)\nLanguage                         : English\n\nText #1\nLanguage                         : Danish\n\nText #2\nLanguage                         : Norwegian\n\nText #3\nLanguage                         : Finnish\n\nText #4\nLanguage                         : Swedish\n\nMenu\n00:00:00.000                     : Chapter  1\n00:10:48.000                     : Chapter  2\n\n\n","torrent":{"xt":"urn:btih:0afd681ef57e9421ee67c236c91af6ff97b67d9a","amp;dn":"Battle+In+Seattle.2007.DVDRiP.x264.AC3.NORDIC.mkv.Zen_Bud","amp;tr":["udp%3A%2F%2Ftracker.openbittorrent.com%3A80","udp%3A%2F%2Fopen.demonii.com%3A1337","udp%3A%2F%2Ftracker.coppersurfer.tk%3A6969","udp%3A%2F%2Fexodus.desync.com%3A6969"],"infoHash":"0afd681ef57e9421ee67c236c91af6ff97b67d9a","infoHashBuffer":{"type":"Buffer","data":[10,253,104,30,245,126,148,33,238,103,194,54,201,26,246,255,151,182,125,154]},"announce":[],"urlList":[]}}